<svg width="20" height="38" viewBox="0 0 20 38" fill="none" xmlns="http://www.w3.org/2000/svg">
<path d="M2.9167 37.6667C2.26442 37.6679 1.63228 37.4509 1.13003 37.0533C0.84735 36.8295 0.613683 36.5545 0.442408 36.2443C0.271134 35.934 0.165619 35.5945 0.131908 35.2453C0.0981958 34.896 0.13695 34.5438 0.245949 34.2089C0.354948 33.8739 0.532049 33.5628 0.767113 33.2933L13.2738 19L1.21378 4.68C0.981889 4.40724 0.808717 4.09338 0.70422 3.75648C0.599723 3.41957 0.565961 3.06626 0.604875 2.71685C0.643789 2.36744 0.754609 2.02882 0.930969 1.72046C1.10733 1.4121 1.34575 1.14006 1.63253 0.920004C1.92137 0.67724 2.25963 0.494127 2.62607 0.382156C2.99251 0.270185 3.37922 0.231775 3.76194 0.269335C4.14466 0.306895 4.51512 0.419614 4.85007 0.600419C5.18502 0.781224 5.47723 1.02621 5.70836 1.32L19.1921 17.32C19.6027 17.7972 19.8272 18.3957 19.8272 19.0133C19.8272 19.631 19.6027 20.2295 19.1921 20.7067L5.23378 36.7067C4.95373 37.0294 4.59798 37.2845 4.19539 37.4513C3.7928 37.6181 3.35473 37.6919 2.9167 37.6667Z" fill="white"/>
</svg>
